Coordinates
nRows=200
nColumns=2
inDegrees=yes
endheader
time	ankle_angle_r	
2.92742	 -0.473151	
2.96069	 -0.462352	
2.99395	 -0.453650	
3.02722	 -0.452899	
3.06048	 -0.462057	
3.09375	 -0.474957	
3.12702	 -0.486650	
3.16028	 -0.497350	
3.19355	 -0.505338	
3.22681	 -0.508566	
3.26008	 -0.509754	
3.29335	 -0.510792	
3.32661	 -0.511072	
3.35988	 -0.511415	
3.39315	 -0.511399	
3.42641	 -0.510252	
3.45968	 -0.510690	
3.49294	 -0.513715	
3.52621	 -0.516285	
3.55948	 -0.517672	
3.59274	 -0.519617	
3.62601	 -0.521323	
3.65927	 -0.520264	
3.69254	 -0.515272	
3.72581	 -0.508522	
3.75907	 -0.504730	
3.79234	 -0.505688	
3.8256	 -0.510332	
3.85887	 -0.517963	
3.89214	 -0.524048	
3.9254	 -0.523169	
3.95867	 -0.517996	
3.99194	 -0.513866	
4.0252	 -0.512378	
4.05847	 -0.513252	
4.09173	 -0.512649	
4.125	 -0.507547	
4.15827	 -0.502428	
4.19153	 -0.499626	
4.2248	 -0.494536	
4.25806	 -0.487947	
4.29133	 -0.483780	
4.3246	 -0.477207	
4.35786	 -0.464947	
4.39113	 -0.455341	
4.4244	 -0.455344	
4.45766	 -0.462710	
4.49093	 -0.472382	
4.52419	 -0.478736	
4.55746	 -0.478580	
4.59073	 -0.475329	
4.62399	 -0.473481	
4.65726	 -0.472338	
4.69052	 -0.468670	
4.72379	 -0.463349	
4.75706	 -0.460490	
4.79032	 -0.460051	
4.82359	 -0.459371	
4.85685	 -0.459253	
4.89012	 -0.460583	
4.92339	 -0.461108	
4.95665	 -0.460038	
4.98992	 -0.458529	
5.02319	 -0.457829	
5.05645	 -0.461228	
5.08972	 -0.468892	
5.12298	 -0.475384	
5.15625	 -0.479087	
5.18952	 -0.481586	
5.22278	 -0.481802	
5.25605	 -0.479903	
5.28931	 -0.476854	
5.32258	 -0.474155	
5.35585	 -0.477489	
5.38911	 -0.486359	
5.42238	 -0.491019	
5.45565	 -0.489729	
5.48891	 -0.486937	
5.52218	 -0.480735	
5.55544	 -0.471957	
5.58871	 -0.467237	
5.62198	 -0.468444	
5.65524	 -0.472331	
5.68851	 -0.474538	
5.72177	 -0.475464	
5.75504	 -0.480851	
5.78831	 -0.488416	
5.82157	 -0.489460	
5.85484	 -0.486015	
5.8881	 -0.486268	
5.92137	 -0.489721	
5.95464	 -0.491001	
5.9879	 -0.488461	
6.02117	 -0.485184	
6.05444	 -0.486522	
6.0877	 -0.493695	
6.12097	 -0.502456	
6.15423	 -0.508624	
6.1875	 -0.510039	
6.22077	 -0.509034	
6.25403	 -0.511433	
6.2873	 -0.517277	
6.32056	 -0.522135	
6.35383	 -0.524763	
6.3871	 -0.524818	
6.42036	 -0.523226	
6.45363	 -0.524193	
6.4869	 -0.528495	
6.52016	 -0.532049	
6.55343	 -0.532300	
6.58669	 -0.530299	
6.61996	 -0.528959	
6.65323	 -0.529956	
6.68649	 -0.531381	
6.71976	 -0.530355	
6.75302	 -0.526167	
6.78629	 -0.519951	
6.81956	 -0.515198	
6.85282	 -0.516352	
6.88609	 -0.522379	
6.91935	 -0.527069	
6.95262	 -0.527563	
6.98589	 -0.526439	
7.01915	 -0.527367	
7.05242	 -0.530927	
7.08569	 -0.532494	
7.11895	 -0.529127	
7.15222	 -0.525451	
7.18548	 -0.524790	
7.21875	 -0.524774	
7.25202	 -0.523144	
7.28528	 -0.516115	
7.31855	 -0.500677	
7.35181	 -0.484024	
7.38508	 -0.477383	
7.41835	 -0.482765	
7.45161	 -0.490560	
7.48488	 -0.488151	
7.51815	 -0.477104	
7.55141	 -0.473165	
7.58468	 -0.482369	
7.61794	 -0.496314	
7.65121	 -0.508797	
7.68448	 -0.518767	
7.71774	 -0.525407	
7.75101	 -0.528741	
7.78427	 -0.529999	
7.81754	 -0.530568	
7.85081	 -0.529755	
7.88407	 -0.525932	
7.91734	 -0.521590	
7.9506	 -0.520697	
7.98387	 -0.523892	
8.01714	 -0.531092	
8.0504	 -0.539940	
8.08367	 -0.543609	
8.11694	 -0.539650	
8.1502	 -0.533526	
8.18347	 -0.530420	
8.21673	 -0.531265	
8.25	 -0.533739	
8.28327	 -0.534554	
8.31653	 -0.533096	
8.3498	 -0.530560	
8.38306	 -0.528619	
8.41633	 -0.529862	
8.4496	 -0.533453	
8.48286	 -0.535373	
8.51613	 -0.536106	
8.5494	 -0.539293	
8.58266	 -0.544982	
8.61593	 -0.550273	
8.64919	 -0.550559	
8.68246	 -0.541450	
8.71573	 -0.525749	
8.74899	 -0.512342	
8.78226	 -0.507112	
8.81552	 -0.509737	
8.84879	 -0.513670	
8.88206	 -0.509811	
8.91532	 -0.498112	
8.94859	 -0.488947	
8.98185	 -0.489289	
9.01512	 -0.497293	
9.04839	 -0.508335	
9.08165	 -0.519747	
9.11492	 -0.530736	
9.14819	 -0.537550	
9.18145	 -0.535967	
9.21472	 -0.530883	
9.24798	 -0.530602	
9.28125	 -0.534386	
9.31452	 -0.537383	
9.34778	 -0.538813	
9.38105	 -0.539746	
9.41431	 -0.542109	
9.44758	 -0.547208	
9.48085	 -0.553159	
9.51411	 -0.558581	
9.54738	 -0.564112	
